<svg id="Layer_1" data-name="Layer 1" xmlns="http://www.w3.org/2000/svg" viewBox="0 0 308.02 306.9"><defs><style>.cls-1{fill:#fff;stroke:#231f20;stroke-miterlimit:10;stroke-width:5px;}.cls-2{font-size:51.47px;fill:#231f20;font-family:MyriadPro-Regular, Myriad Pro;}.cls-3{letter-spacing:-0.02em;}.cls-4{letter-spacing:0em;}.cls-5{letter-spacing:0.02em;}.cls-6{letter-spacing:0em;}.cls-7{letter-spacing:-0.01em;}.cls-8{letter-spacing:-0.01em;}</style></defs><path class="cls-1" d="M403.91,433.84c-20.24,6.88-80.71-19.72-123.43-41.23a83.09,83.09,0,0,0-37.4-8.9H219c-62.75,0-113.62-32.88-113.62-113.62V246.67c3.33-73,50.87-113.62,113.62-113.62h36.58A113.62,113.62,0,0,1,369.16,246.67V353.1c0,.46,0,.92,0,1.37-.09,1.94-.16,3.89-.14,5.83.4,34.86,1.67,43.22,38.45,70.75C409.45,432.55,408.12,432.41,403.91,433.84Z" transform="translate(-102.84 -130.55)"/><text class="cls-2" transform="translate(44.16 106.49)">Hell<tspan class="cls-3" x="83.64" y="0">o</tspan><tspan class="cls-4" x="110.66" y="0">,</tspan><tspan x="0" y="61.76">I am </tspan><tspan class="cls-5" x="101.86" y="61.76">K</tspan><tspan class="cls-6" x="130.58" y="61.76">a</tspan><tspan class="cls-7" x="155.18" y="61.76">t</tspan><tspan class="cls-8" x="171.91" y="61.76">e</tspan><tspan x="197.08" y="61.76">.</tspan></text></svg>