<svg width="100" height="100" viewBox="0 0 100 100" fill="none" xmlns="http://www.w3.org/2000/svg">
<circle cx="50" cy="50" r="37.5" fill="white" stroke="black" stroke-width="5"/>
<path d="M47.6356 64L39.3956 51.72V64H30.5156V35.68H39.3956V47.6L47.5156 35.68H57.5556L47.7956 49.24L58.1956 64H47.6356ZM65.1109 64.32C63.5643 64.32 62.3243 63.9067 61.3909 63.08C60.4576 62.2533 59.9909 61.2133 59.9909 59.96C59.9909 58.68 60.4576 57.6267 61.3909 56.8C62.3243 55.9467 63.5643 55.52 65.1109 55.52C66.6309 55.52 67.8576 55.9467 68.7909 56.8C69.7243 57.6267 70.1909 58.68 70.1909 59.96C70.1909 61.2133 69.7243 62.2533 68.7909 63.08C67.8576 63.9067 66.6309 64.32 65.1109 64.32Z" fill="black"/>
</svg>
